<?xml version="1.0" encoding="UTF-8" standalone="no"?>
<!DOCTYPE svg>
<svg width="32" version="1.1" xmlns="http://www.w3.org/2000/svg" height="32" viewBox="0 0 32 32">
 <path style="fill:#000000" d="m 26.416,8.198 0,-5.423 1.683,0 1.190,1.190 0,16.049 -3.404,0 0.168,2.873 6.109,0 0,-20.112 -2.873,-2.873 -20.112,0 0,6.277 2.873,-0.056 0,-3.348 1.436,0 0,3.292 7.183,-0.168 0,-3.124 2.873,0 0,3.797"/>
 <path style="fill:#000000" d="m 22.226,12.316 0,-5.423 1.683,0 1.190,1.190 0,16.049 -3.404,0 0.168,2.873 6.109,0 0,-20.112 -2.873,-2.873 -20.112,0 0,6.277 2.873,-0.056 0,-3.348 1.436,0 0,3.292 7.183,-0.168 0,-3.124 2.873,0 0,3.797"/>
 <path style="fill:#000000" d="M 19.971,9.014 H -0.140 V 32 H 22.845 V 11.887 L 19.971,9.014 z m -8.619,2.873 h 2.873 v 5.746 h -2.873 v -5.746 z m 8.619,17.239 H 2.732 V 11.887 h 1.436 v 7.183 H 17.098 v -7.183 h 1.683 l 1.190,1.190 v 16.049 z"/>
</svg>
