<?xml version="1.0" encoding="UTF-8" standalone="no"?>
<!-- Generated by IcoMoon.io -->

<svg
   xmlns:dc="http://purl.org/dc/elements/1.1/"
   xmlns:cc="http://creativecommons.org/ns#"
   xmlns:rdf="http://www.w3.org/1999/02/22-rdf-syntax-ns#"
   xmlns:svg="http://www.w3.org/2000/svg"
   xmlns="http://www.w3.org/2000/svg"
   xmlns:sodipodi="http://sodipodi.sourceforge.net/DTD/sodipodi-0.dtd"
   xmlns:inkscape="http://www.inkscape.org/namespaces/inkscape"
   version="1.1"
   width="32"
   height="32"
   viewBox="0 0 32 32"
   id="svg2"
   inkscape:version="0.48.4 r9939"
   sodipodi:docname="disk_2.svg">
  <metadata
     id="metadata13">
    <rdf:RDF>
      <cc:Work
         rdf:about="">
        <dc:format>image/svg+xml</dc:format>
        <dc:type
           rdf:resource="http://purl.org/dc/dcmitype/StillImage" />
      </cc:Work>
    </rdf:RDF>
  </metadata>
  <defs
     id="defs11" />
  <sodipodi:namedview
     pagecolor="#ffffff"
     bordercolor="#666666"
     borderopacity="1"
     objecttolerance="10"
     gridtolerance="10"
     guidetolerance="10"
     inkscape:pageopacity="0"
     inkscape:pageshadow="2"
     inkscape:window-width="1598"
     inkscape:window-height="873"
     id="namedview9"
     showgrid="false"
     inkscape:zoom="15.578446"
     inkscape:cx="20.694212"
     inkscape:cy="13.95196"
     inkscape:window-x="0"
     inkscape:window-y="0"
     inkscape:window-maximized="1"
     inkscape:current-layer="svg2" />
  <g
     id="icomoon-ignore"
     transform="matrix(0.71831137,0,0,0.71831137,-0.14084432,9.0140363)">
    <line
       x1="0"
       y1="0"
       x2="0"
       y2="0"
       opacity=""
       id="line5"
       style="stroke:#449fdb;stroke-width:1" />
  </g>
  <path
     d="m 26.416074,8.1981786 0,-5.4233074 1.683004,0 1.190242,1.1902418 0,16.049232 -3.40451,0 0.168233,2.873245 6.109522,0 0,-20.112719 -2.873245,-2.87324554 -20.1127177,0 0,6.27775514 2.8732447,-0.05608 0,-3.3484323 1.436623,0 0,3.2923543 7.183113,-0.168233 0,-3.1241213 2.873246,0 0,3.7970543"
     id="path7-7-3"
     inkscape:connector-curvature="0"
     style="fill:#000000"
     sodipodi:nodetypes="cccccccccccccccccccc" />
  <path
     d="m 22.226214,12.316727 0,-5.4233074 1.683004,0 1.190242,1.1902418 0,16.0492316 -3.40451,0 0.168233,2.873245 6.109522,0 0,-20.1127186 -2.873245,-2.8732455 -20.1127177,0 0,6.2777551 2.8732451,-0.05608 0,-3.3484323 1.4366228,0 0,3.2923543 7.1831128,-0.168233 0,-3.1241213 2.873246,0 0,3.7970543"
     id="path7-7"
     inkscape:connector-curvature="0"
     style="fill:#000000"
     sodipodi:nodetypes="cccccccccccccccccccc" />
  <path
     d="M 19.971874,9.0140363 H -0.14084432 V 32 H 22.84512 V 11.887282 L 19.971874,9.0140363 z m -8.619736,2.8732457 h 2.873246 v 5.746491 h -2.873246 v -5.746491 z m 8.619736,17.239473 H 2.7324011 V 11.887282 h 1.4366228 v 7.183114 H 17.098629 v -7.183114 h 1.683003 l 1.190242,1.190242 v 16.049231 z"
     id="path7"
     inkscape:connector-curvature="0"
     style="fill:#000000" />
</svg>
